<svg  fill="white" height="512pt" viewBox="0 0 512.00008 512" width="512pt" xmlns="http://www.w3.org/2000/svg"><path d="m505.550781 291.988281c-3.75-10.390625-15.214843-15.769531-25.601562-12.023437-10.390625 3.753906-15.773438 15.214844-12.023438 25.605468 2.703125 7.488282 4.074219 15.371094 4.074219 23.429688v73h-62.714844l-64.144531-64.144531c-3.75-3.75-8.835937-5.855469-14.140625-5.855469h-150c-5.304688 0-10.390625 2.105469-14.140625 5.855469l-64.144531 64.144531h-62.714844v-73c0-38.046875 30.953125-69 69-69h169c11.046875 0 20-8.953125 20-20s-8.953125-20-20-20h-169c-6.394531 0-12.65625.558594-18.753906 1.621094l31.390625-62.234375c12.363281-24.296875 36.980469-39.386719 64.242187-39.386719h67.191406c11.046876 0 20-8.953125 20-20s-8.953124-20-20-20h-67.191406c-42.390625 0-80.667968 23.46875-99.925781 61.3125l-56.832031 112.679688c-.296875.585937-.554688 1.175781-.785156 1.773437-17.597657 19.363281-28.335938 45.070313-28.335938 73.234375v163c0 11.046875 8.953125 20 20 20h80c11.046875 0 20-8.953125 20-20v-50h272v50c0 11.046875 8.953125 20 20 20h80c11.046875 0 20-8.953125 20-20v-163c0-12.703125-2.171875-25.15625-6.449219-37.011719zm-316.265625 80.011719h133.429688l30 30h-193.429688zm-109.285156 100h-40v-30h40zm392 0h-40v-30h40zm-60-160c11.046875 0 20 8.953125 20 20s-8.953125 20-20 20-20-8.953125-20-20 8.953125-20 20-20zm-312 0c11.046875 0 20 8.953125 20 20s-8.953125 20-20 20-20-8.953125-20-20 8.953125-20 20-20zm308-61c27.898438 0 54.105469-10.917969 73.804688-30.738281 19.644531-19.765625 30.367187-45.972657 30.191406-73.789063-.25-40.144531-24.925782-62.734375-44.75-80.890625-18.117188-16.585937-29.21875-27.664062-29.21875-45.582031 0-7.296875-3.972656-14.011719-10.367188-17.527344-6.394531-3.511718-14.191406-3.265625-20.351562.640625l-1.378906.871094c-66.683594 41.949219-101.929688 91.265625-101.929688 142.613281 0 57.566406 46.652344 104.402344 104 104.402344zm0-40c-8.269531 0-15-7.019531-15-15.648438 0-7.675781 4.277344-16.757812 9.96875-25.191406 3.386719 4.09375 6.910156 7.511719 9.933594 10.449219 7.945312 7.71875 10.097656 10.421875 10.097656 14.742187 0 8.628907-6.730469 15.648438-15 15.648438zm-2.714844-158.085938c8.402344 17.863282 22.65625 30.917969 34.949219 42.171876 19.605469 17.949218 31.628906 30.050781 31.765625 51.636718.078125 12.871094-3.644531 25.183594-10.648438 35.667969-3.765624-14.140625-13.234374-23.34375-20.582031-30.476563-8.621093-8.371093-11.636719-11.925781-11.636719-18.914062 0-7.835938-4.578124-14.949219-11.707031-18.199219-7.128906-3.246093-15.5-2.035156-21.414062 3.105469-3.886719 3.378906-34.40625 30.804688-41.519531 63.96875-6.625-10.144531-10.492188-22.261719-10.492188-35.277344 0-31.058594 21.558594-63.765625 61.285156-93.683594zm0 0"/></svg>