<svg  fill="white" id="regular" enable-background="new 0 0 24 24" height="512" viewBox="0 0 24 24" width="512" xmlns="http://www.w3.org/2000/svg"><g><path d="m4.75 16.57c-.414 0-.75-.336-.75-.75v-11.07c0-.414.336-.75.75-.75h12.65c.414 0 .75.336.75.75s-.336.75-.75.75h-11.9v10.32c0 .414-.336.75-.75.75z"/></g><g><path d="m19.25 20h-12.75c-.414 0-.75-.336-.75-.75s.336-.75.75-.75h12v-10.32c0-.414.336-.75.75-.75s.75.336.75.75v11.07c0 .414-.336.75-.75.75z"/></g><g><path d="m5.768 22.004c-.196 0-.393-.077-.54-.229-.287-.298-.279-.773.02-1.061.291-.281.452-.653.452-1.048s-.161-.767-.453-1.048c-.276-.266-.307-.698-.071-1l1.919-2.467c.134-.173.173-.392.11-.592l-3.387 3.266c-.298.288-.772.28-1.061-.02-.288-.298-.279-.773.02-1.061l3.466-3.342c.322-.31.78-.45 1.224-.378.447.073.821.343 1.026.74.384.742.3 1.647-.215 2.309l-1.552 1.996c.309.472.474 1.022.474 1.597 0 .806-.324 1.562-.912 2.129-.145.14-.333.209-.52.209z"/></g><g><path d="m8.25 24h-7.5c-.414 0-.75-.336-.75-.75v-4.63c0-1.777.687-3.455 1.935-4.726l1.879-1.919c.289-.296.765-.3 1.061-.011.296.29.301.765.011 1.061l-1.88 1.92c-.971.989-1.506 2.294-1.506 3.675v3.88h6v-.38c0-.264.139-.508.365-.644.685-.41 1.12-1.172 1.135-1.991.008-.415.328-.727.764-.736.414.008.744.35.736.764-.022 1.181-.587 2.294-1.5 3v.735c0 .416-.336.752-.75.752z"/></g><g><path d="m16.765 10.996c-.077 0-.155-.006-.232-.019-.447-.073-.821-.343-1.026-.74-.384-.742-.3-1.647.215-2.309l1.552-1.996c-.309-.473-.474-1.023-.474-1.598 0-.806.324-1.562.912-2.129.299-.286.773-.279 1.061.02.287.298.279.773-.02 1.061-.292.281-.453.653-.453 1.048s.161.767.453 1.048c.276.266.307.698.071 1l-1.919 2.468c-.134.173-.173.392-.11.592l3.387-3.266c.299-.286.773-.279 1.061.02s.279.773-.02 1.061l-3.466 3.342c-.266.255-.624.397-.992.397z"/></g><g><path d="m19.65 12.25c-.189 0-.379-.071-.525-.214-.296-.29-.301-.765-.011-1.061l1.88-1.92c.971-.989 1.506-2.294 1.506-3.675v-3.88h-6v.38c0 .264-.139.508-.365.644-.685.409-1.12 1.172-1.135 1.99-.008.414-.356.728-.764.736-.414-.008-.744-.35-.736-.764.022-1.181.587-2.294 1.5-3v-.736c0-.414.336-.75.75-.75h7.5c.414 0 .75.336.75.75v4.63c0 1.777-.687 3.455-1.935 4.726l-1.879 1.919c-.147.15-.342.225-.536.225z"/></g></svg>