<?xml version="1.0" encoding="iso-8859-1"?>
<!-- Generator: Adobe Illustrator 19.0.0, SVG Export Plug-In . SVG Version: 6.00 Build 0)  -->
<svg  fill="white" version="1.1" id="Capa_1" xmlns="http://www.w3.org/2000/svg" xmlns:xlink="http://www.w3.org/1999/xlink" x="0px" y="0px"
	 viewBox="0 0 512 512" style="enable-background:new 0 0 512 512;" xml:space="preserve">
<g>
	<g>
		<g>
			<path d="M302,0C186.206,0,92,94.206,92,210c0,50.944,18.24,97.704,48.526,134.107L5.907,477.81
				c-7.837,7.784-7.881,20.447-0.097,28.284C9.719,510.03,14.858,512,20,512c5.096,0,10.193-1.935,14.094-5.81l134.801-133.884
				C205.152,402.094,251.523,420,302,420c36.026,0,71.575-9.283,102.803-26.846c9.628-5.414,13.043-17.608,7.629-27.236
				c-5.414-9.626-17.607-13.045-27.236-7.628C359.941,372.493,331.173,380,302,380c-93.738,0-170-76.262-170-170S208.262,40,302,40
				s170,76.262,170,170c0,29.532-7.682,58.61-22.217,84.091c-5.474,9.594-2.131,21.809,7.463,27.282
				c9.594,5.473,21.809,2.131,27.281-7.463C502.5,282.402,512,246.471,512,210C512,94.206,417.794,0,302,0z"/>
			<path d="M302.981,335c11.046,0,20-8.954,20-20v-11.583c27.511-3.843,48.02-26.472,48.02-54.668v-4.909
				c0-15.113-5.915-29.23-16.656-39.751C343.751,193.714,329.649,188,314.635,188h-18.327c-8.812,0-16.255-7.785-16.255-17v-7.294
				c0-8.954,6.988-15.706,16.255-15.706h17.33c5.094,0,10.362,3.41,10.362,9.116c0,11.046,8.954,20,20,20c11.046,0,20-8.954,20-20
				c0-23.969-17.7-43.97-41.02-48.255V96c0-11.046-8.954-20-20-20c-11.046,0-20,8.954-20,20v13.548
				c-9.899,2.337-18.966,7.272-26.319,14.467c-10.71,10.479-16.608,24.576-16.608,39.691V171c0,31.43,25.235,57,56.255,57h18.327
				c9.177,0,16.365,6.958,16.365,15.84v4.909c0,8.694-7.035,15.251-16.365,15.251H284.85c-4.914,0-9.89-3.091-9.89-9
				c0-11.046-8.954-20-20-20c-11.046,0-20,8.954-20,20c0,26.86,20.946,48.019,48.021,48.955V315
				C282.981,326.046,291.935,335,302.981,335z"/>
		</g>
	</g>
</g>
<g>
</g>
<g>
</g>
<g>
</g>
<g>
</g>
<g>
</g>
<g>
</g>
<g>
</g>
<g>
</g>
<g>
</g>
<g>
</g>
<g>
</g>
<g>
</g>
<g>
</g>
<g>
</g>
<g>
</g>
</svg>
